<mxfile host="65bd71144e">
    <diagram name="Страница — 1" id="lCUY6ASjVqjvzzZgXX1m">
        <mxGraphModel dx="1007" dy="591" grid="1" gridSize="10" guides="1" tooltips="1" connect="1" arrows="1" fold="1" page="1" pageScale="1" pageWidth="827" pageHeight="1169" math="0" shadow="0">
            <root>
                <mxCell id="0"/>
                <mxCell id="1" parent="0"/>
                <mxCell id="NGMxcYjlZq1bIX3zJ21u-1" value="&lt;h3&gt;Задание 2&lt;/h3&gt;&lt;p style=&quot;&quot;&gt;&lt;/p&gt;&lt;div style=&quot;text-align: justify;&quot;&gt;&lt;span style=&quot;background-color: initial;&quot;&gt;Разработайте процесс ETL для системы магазин-склад.&lt;/span&gt;&lt;/div&gt;&lt;div style=&quot;text-align: justify;&quot;&gt;&lt;span style=&quot;background-color: initial;&quot;&gt;Предполагается что у магазина есть база данных транзакций (продаж, возвратов).&lt;/span&gt;&lt;/div&gt;&lt;div style=&quot;text-align: justify;&quot;&gt;&lt;span style=&quot;background-color: initial;&quot;&gt;У склада есть база данных товаров (поступивших, отгруженных).&lt;/span&gt;&lt;/div&gt;&lt;div style=&quot;text-align: justify;&quot;&gt;&lt;span style=&quot;background-color: initial;&quot;&gt;Конечное хранилище должно давать возможность аналитического анализа популярных товаров, и товаров которые нужно заказать на склад.&lt;/span&gt;&lt;/div&gt;&lt;p style=&quot;text-align: justify;&quot;&gt;&lt;span style=&quot;letter-spacing: 0.14px; text-align: start;&quot;&gt;Нарисуйте структурную схему ETL используя &lt;/span&gt;&lt;a style=&quot;box-sizing: border-box; border: 0px; font-variant-numeric: inherit; font-variant-east-asian: inherit; font-variant-alternates: inherit; font-stretch: inherit; line-height: inherit; font-optical-sizing: inherit; font-kerning: inherit; font-feature-settings: inherit; font-variation-settings: inherit; margin: 0px; padding: 0px; vertical-align: baseline; text-underline-offset: 2px; letter-spacing: 0.14px; text-align: start;&quot; target=&quot;_blank&quot; href=&quot;http://app.diagrams.net/&quot;&gt;app.diagrams.net&lt;/a&gt;&lt;span style=&quot;letter-spacing: 0.14px; text-align: start;&quot;&gt; и поделитесь картинкой в чате. Внизу каждого этапа ETL сделайте короткое описание, что будет происходить на этом этапе.&lt;/span&gt;&lt;/p&gt;&lt;p&gt;&lt;/p&gt;" style="text;html=1;strokeColor=none;fillColor=none;align=center;verticalAlign=middle;whiteSpace=wrap;rounded=0;fontSize=20;" parent="1" vertex="1">
                    <mxGeometry x="40" y="40" width="760" height="320" as="geometry"/>
                </mxCell>
                <mxCell id="2" value="База&lt;br&gt;магазина" style="shape=cylinder3;whiteSpace=wrap;html=1;boundedLbl=1;backgroundOutline=1;size=15;labelBackgroundColor=none;fontFamily=Helvetica;fontSize=20;fontColor=#F0F0F0;" parent="1" vertex="1">
                    <mxGeometry x="60" y="500" width="100" height="110" as="geometry"/>
                </mxCell>
                <mxCell id="3" value="Решение" style="text;html=1;strokeColor=none;fillColor=none;align=center;verticalAlign=middle;whiteSpace=wrap;rounded=0;labelBackgroundColor=none;fontFamily=Helvetica;fontSize=20;fontColor=#F0F0F0;" parent="1" vertex="1">
                    <mxGeometry x="40" y="410" width="110" height="30" as="geometry"/>
                </mxCell>
                <mxCell id="4" value="База&lt;br&gt;склада" style="shape=cylinder3;whiteSpace=wrap;html=1;boundedLbl=1;backgroundOutline=1;size=15;labelBackgroundColor=none;fontFamily=Helvetica;fontSize=20;fontColor=#F0F0F0;" parent="1" vertex="1">
                    <mxGeometry x="60" y="740" width="100" height="110" as="geometry"/>
                </mxCell>
                <mxCell id="5" value="" style="endArrow=none;html=1;fontFamily=Helvetica;fontSize=20;fontColor=#F0F0F0;exitX=1.02;exitY=0.564;exitDx=0;exitDy=0;exitPerimeter=0;entryX=1;entryY=0.5;entryDx=0;entryDy=0;entryPerimeter=0;" parent="1" source="4" target="2" edge="1">
                    <mxGeometry width="50" height="50" relative="1" as="geometry">
                        <mxPoint x="390" y="750" as="sourcePoint"/>
                        <mxPoint x="240" y="560" as="targetPoint"/>
                        <Array as="points">
                            <mxPoint x="320" y="802"/>
                            <mxPoint x="320" y="680"/>
                            <mxPoint x="320" y="555"/>
                        </Array>
                    </mxGeometry>
                </mxCell>
                <mxCell id="6" value="Выгрузка данных" style="text;html=1;strokeColor=none;fillColor=none;align=center;verticalAlign=middle;whiteSpace=wrap;rounded=0;labelBackgroundColor=none;fontFamily=Helvetica;fontSize=20;fontColor=#F0F0F0;" parent="1" vertex="1">
                    <mxGeometry x="180" y="490" width="120" height="50" as="geometry"/>
                </mxCell>
                <mxCell id="7" value="Выгрузка данных" style="text;html=1;strokeColor=none;fillColor=none;align=center;verticalAlign=middle;whiteSpace=wrap;rounded=0;labelBackgroundColor=none;fontFamily=Helvetica;fontSize=20;fontColor=#F0F0F0;" parent="1" vertex="1">
                    <mxGeometry x="180" y="820" width="120" height="50" as="geometry"/>
                </mxCell>
                <mxCell id="8" value="" style="endArrow=classic;html=1;fontFamily=Helvetica;fontSize=20;fontColor=#F0F0F0;" parent="1" edge="1">
                    <mxGeometry width="50" height="50" relative="1" as="geometry">
                        <mxPoint x="320" y="680" as="sourcePoint"/>
                        <mxPoint x="440" y="680" as="targetPoint"/>
                    </mxGeometry>
                </mxCell>
                <mxCell id="9" value="" style="rounded=0;whiteSpace=wrap;html=1;labelBackgroundColor=none;fontFamily=Helvetica;fontSize=20;fontColor=#F0F0F0;" parent="1" vertex="1">
                    <mxGeometry x="440" y="410" width="270" height="540" as="geometry"/>
                </mxCell>
                <mxCell id="10" value="Обработка данных из базы магазина" style="text;html=1;strokeColor=default;fillColor=none;align=center;verticalAlign=middle;whiteSpace=wrap;rounded=0;labelBackgroundColor=none;fontFamily=Helvetica;fontSize=20;fontColor=#F0F0F0;" parent="1" vertex="1">
                    <mxGeometry x="485" y="440" width="180" height="70" as="geometry"/>
                </mxCell>
                <mxCell id="11" value="Обработка данных из базы склада" style="text;html=1;strokeColor=default;fillColor=none;align=center;verticalAlign=middle;whiteSpace=wrap;rounded=0;labelBackgroundColor=none;fontFamily=Helvetica;fontSize=20;fontColor=#F0F0F0;" parent="1" vertex="1">
                    <mxGeometry x="485" y="540" width="180" height="70" as="geometry"/>
                </mxCell>
                <mxCell id="12" value="Подсчёт остатков" style="text;html=1;strokeColor=default;fillColor=none;align=center;verticalAlign=middle;whiteSpace=wrap;rounded=0;labelBackgroundColor=none;fontFamily=Helvetica;fontSize=20;fontColor=#F0F0F0;" parent="1" vertex="1">
                    <mxGeometry x="485" y="640" width="180" height="70" as="geometry"/>
                </mxCell>
                <mxCell id="13" value="Маппинг" style="text;html=1;strokeColor=default;fillColor=none;align=center;verticalAlign=middle;whiteSpace=wrap;rounded=0;labelBackgroundColor=none;fontFamily=Helvetica;fontSize=20;fontColor=#F0F0F0;" parent="1" vertex="1">
                    <mxGeometry x="485" y="740" width="180" height="70" as="geometry"/>
                </mxCell>
                <mxCell id="14" value="Подготовка к загрузке в хранилище" style="text;html=1;strokeColor=default;fillColor=none;align=center;verticalAlign=middle;whiteSpace=wrap;rounded=0;labelBackgroundColor=none;fontFamily=Helvetica;fontSize=20;fontColor=#F0F0F0;" parent="1" vertex="1">
                    <mxGeometry x="490" y="840" width="180" height="70" as="geometry"/>
                </mxCell>
                <mxCell id="15" value="&lt;div style=&quot;text-align: left;&quot;&gt;&lt;span style=&quot;background-color: initial;&quot;&gt;Основная работа происходит на этом этапе.&lt;/span&gt;&lt;/div&gt;&lt;div style=&quot;text-align: left;&quot;&gt;Т.к. база магазина хранит все транзакции важной задачей является произвести агрегацию и привести данные к виду подходящему для аналитического использования.&lt;/div&gt;" style="text;html=1;strokeColor=none;fillColor=none;align=center;verticalAlign=middle;whiteSpace=wrap;rounded=0;labelBackgroundColor=none;fontFamily=Helvetica;fontSize=20;fontColor=#F0F0F0;" parent="1" vertex="1">
                    <mxGeometry x="355" y="970" width="545" height="130" as="geometry"/>
                </mxCell>
                <mxCell id="18" value="Хранилище данных" style="shape=cylinder3;whiteSpace=wrap;html=1;boundedLbl=1;backgroundOutline=1;size=15;labelBackgroundColor=none;strokeColor=default;fontFamily=Helvetica;fontSize=20;fontColor=#F0F0F0;" parent="1" vertex="1">
                    <mxGeometry x="840" y="607.5" width="170" height="145" as="geometry"/>
                </mxCell>
                <mxCell id="19" value="" style="endArrow=classic;html=1;fontFamily=Helvetica;fontSize=20;fontColor=#F0F0F0;entryX=0;entryY=0.5;entryDx=0;entryDy=0;entryPerimeter=0;exitX=1;exitY=0.5;exitDx=0;exitDy=0;" parent="1" source="9" target="18" edge="1">
                    <mxGeometry width="50" height="50" relative="1" as="geometry">
                        <mxPoint x="550" y="700" as="sourcePoint"/>
                        <mxPoint x="600" y="650" as="targetPoint"/>
                    </mxGeometry>
                </mxCell>
                <mxCell id="20" value="&lt;div style=&quot;text-align: justify;&quot;&gt;&lt;span style=&quot;background-color: initial;&quot;&gt;Здесь данные будут предоставляться аналитическим системам, помогать составлять своевременный заказ недостающих или заканчивающихся товаров.&lt;/span&gt;&lt;/div&gt;" style="text;html=1;strokeColor=none;fillColor=none;align=left;verticalAlign=middle;whiteSpace=wrap;rounded=0;labelBackgroundColor=none;fontFamily=Helvetica;fontSize=20;fontColor=#F0F0F0;" parent="1" vertex="1">
                    <mxGeometry x="1060" y="620" width="450" height="120" as="geometry"/>
                </mxCell>
            </root>
        </mxGraphModel>
    </diagram>
</mxfile>